<?xml version="1.0" standalone="no"?>
<!DOCTYPE svg PUBLIC "-//W3C//DTD SVG 20010904//EN"
 "http://www.w3.org/TR/2001/REC-SVG-20010904/DTD/svg10.dtd">
<svg version="1.0" xmlns="http://www.w3.org/2000/svg"
 width="1800.000000pt" height="600.000000pt" viewBox="0 0 1800.000000 600.000000"
 preserveAspectRatio="xMidYMid meet">

<g transform="translate(0.000000,600.000000) scale(0.100000,-0.100000)"
fill="#000000" stroke="none">
<path d="M2492 5868 c-9 -9 -12 -74 -12 -230 l0 -217 -37 -6 c-108 -16 -458
-118 -469 -136 -3 -6 3 -13 15 -16 25 -6 27 -18 6 -27 -52 -20 -119 70 -141
188 -19 104 -86 242 -155 319 -62 69 -83 74 -77 17 2 -22 2 -40 0 -40 -1 0
-13 7 -26 15 -13 9 -36 18 -50 21 -27 4 -27 4 -10 -21 16 -24 16 -25 -2 -19
-11 4 -25 12 -32 17 -16 13 -62 18 -62 7 0 -5 5 -12 10 -15 18 -11 10 -25 -14
-25 -13 0 -30 7 -37 16 -12 14 -14 14 -20 -3 -5 -15 -9 -12 -25 20 -21 45 -30
47 -39 7 -8 -37 -39 -76 -75 -95 -38 -20 -37 -20 -32 15 6 42 -4 37 -29 -12
-17 -33 -22 -59 -21 -111 1 -38 5 -74 8 -80 5 -9 4 -9 -6 0 -7 7 -16 40 -19
75 l-7 63 -22 -58 c-12 -32 -22 -63 -23 -70 0 -7 -6 4 -13 23 l-13 34 -11 -34
c-7 -18 -10 -56 -7 -84 5 -43 4 -47 -5 -26 -7 14 -10 41 -8 62 2 20 0 34 -4
32 -7 -5 -17 -58 -23 -129 -1 -22 -3 -43 -4 -47 -2 -17 -29 6 -45 39 -9 19
-19 34 -21 31 -3 -2 1 -32 7 -66 13 -68 8 -82 -19 -61 -15 11 -15 10 1 -9 11
-12 16 -25 13 -28 -3 -4 -2 -16 4 -28 8 -16 4 -14 -15 7 -30 32 -32 29 -11
-13 14 -27 14 -30 1 -30 -10 0 -13 -6 -9 -17 4 -10 2 -14 -4 -10 -16 10 -24
-20 -13 -48 10 -27 2 -33 -18 -13 -20 20 -15 -12 5 -35 18 -19 17 -20 -5 -8
-32 17 -35 11 -18 -36 22 -62 44 -100 74 -128 l27 -26 -40 14 c-22 8 -53 17
-69 21 l-29 7 37 -42 c26 -28 34 -44 27 -49 -16 -9 1 -23 60 -49 45 -21 41
-29 -5 -11 -37 14 -32 0 17 -48 25 -25 58 -45 82 -51 l40 -11 -50 5 c-46 4
-48 3 -30 -10 11 -8 29 -23 40 -33 29 -27 76 -41 192 -60 l101 -17 -49 -84
c-27 -46 -76 -121 -109 -166 -33 -46 -60 -86 -60 -89 0 -4 26 7 58 23 46 24
64 41 95 90 22 33 55 75 75 92 41 34 168 174 183 201 8 15 4 14 -27 -4 l-36
-21 22 44 c21 40 21 43 4 30 -10 -7 -3 1 16 18 l34 31 -34 0 -35 0 43 29 c27
18 39 31 30 33 -7 3 3 13 26 24 l39 19 -38 5 -39 5 55 34 c43 27 50 35 36 40
-13 5 23 26 125 76 132 63 141 69 113 76 -16 4 -46 7 -65 8 -33 2 -31 4 34 30
59 24 67 30 51 38 -21 12 -17 13 117 34 79 12 91 22 39 34 -16 3 -35 13 -43
22 -11 14 -4 15 77 9 56 -4 85 -3 76 2 -9 7 5 12 44 17 31 3 54 9 52 12 -7 7
-75 23 -121 28 -21 3 -42 8 -45 11 -3 4 10 4 29 0 27 -5 32 -4 22 6 -42 42 25
71 146 62 50 -3 98 -2 112 4 25 10 24 10 -20 30 -44 19 -44 20 -18 27 40 10
279 11 308 1 22 -8 23 -7 11 7 -14 18 -10 22 33 29 16 2 9 10 -30 35 -60 40
-54 41 31 7 36 -15 68 -24 71 -22 2 3 -5 17 -16 31 l-20 26 28 -9 c52 -14 126
-50 149 -72 13 -12 38 -22 62 -23 45 -4 49 0 24 27 -9 10 -11 18 -5 18 27 0
118 -42 154 -70 34 -28 38 -29 38 -11 0 19 2 19 49 5 53 -15 94 -33 181 -78
47 -25 52 -30 35 -37 -11 -4 -32 -8 -47 -8 -16 -1 -28 -5 -28 -9 0 -9 88 -32
121 -32 21 0 26 -15 7 -24 -7 -3 6 -4 30 -2 53 5 54 -6 1 -30 l-42 -18 99 -18
c124 -22 126 -23 84 -35 l-35 -10 38 -7 c21 -4 35 -11 32 -17 -4 -5 -2 -9 3
-9 5 0 43 -16 83 -36 l74 -35 -47 4 c-27 3 -48 3 -48 2 0 -13 96 -63 149 -77
l66 -18 -57 3 -58 4 28 -17 c15 -10 42 -34 61 -54 l35 -36 -30 9 c-16 5 -38
12 -49 16 -11 3 -6 -1 10 -11 96 -55 171 -134 85 -89 -23 12 -14 -1 40 -57 76
-79 88 -102 38 -69 -93 58 -94 58 -46 -10 24 -35 84 -106 133 -159 128 -135
127 -133 74 -115 l-43 16 25 -28 c23 -26 34 -40 81 -112 27 -40 23 -52 -13
-34 -16 8 -33 13 -35 10 -3 -3 18 -32 48 -64 29 -32 64 -72 76 -90 l23 -32
-35 14 c-20 9 -51 24 -68 35 -51 31 -66 25 -31 -12 41 -43 183 -238 183 -251
0 -10 -13 -1 -74 53 -34 29 -29 19 36 -76 26 -39 48 -77 48 -86 0 -20 57 -133
74 -147 12 -10 -8 62 -40 144 -7 19 -5 18 18 -2 13 -13 33 -23 43 -23 16 0 15
4 -8 28 -27 28 -36 49 -17 37 6 -3 10 0 10 7 0 16 -53 103 -69 112 -24 15 -9
24 17 10 44 -23 48 -16 11 22 -24 26 -28 33 -12 25 34 -17 38 -13 13 14 -27
29 -22 42 10 25 l21 -11 -20 38 c-12 21 -48 81 -82 133 -34 52 -72 116 -85
142 l-24 46 30 -8 c17 -5 30 -6 30 -3 0 10 -88 151 -134 214 -25 35 -46 66
-46 70 0 3 24 9 53 12 112 12 194 37 243 75 l47 37 -34 6 c-29 5 -30 7 -8 8
27 1 46 15 89 64 l24 27 -35 -6 c-34 -6 -34 -5 16 27 40 26 46 33 32 38 -15 6
-13 11 18 41 19 19 35 37 35 42 0 9 -57 -1 -85 -15 -18 -8 -17 -7 3 16 25 26
78 157 64 157 -4 0 -18 -7 -30 -16 -21 -15 -21 -14 3 22 32 47 34 81 3 44
l-21 -25 7 28 c3 15 4 38 0 52 -6 24 -7 25 -21 8 -14 -17 -14 -17 -8 2 3 11 9
33 12 49 5 25 4 28 -12 23 -15 -6 -16 -3 -11 20 18 71 19 88 5 76 -27 -26 -36
-13 -42 60 -3 39 -11 86 -18 102 -13 30 -13 29 -18 -32 -4 -34 -10 -65 -15
-70 -4 -4 -5 27 -1 69 6 62 4 81 -9 99 -11 16 -16 19 -17 9 -1 -8 -5 -4 -9 10
-7 20 -8 16 -10 -25 l-2 -50 -8 42 c-5 23 -16 54 -24 70 l-15 28 -1 -55 c-1
-30 -7 -68 -15 -85 l-15 -30 5 35 c2 19 7 54 11 77 5 33 1 52 -17 90 -24 48
-24 48 -29 18 l-5 -29 -19 28 c-13 21 -20 25 -26 16 -10 -15 -30 -4 -30 16 0
9 5 12 12 8 7 -4 8 -3 4 5 -4 6 -12 9 -17 6 -5 -4 -9 0 -9 7 0 10 -3 9 -11 -2
-9 -13 -10 -12 -5 3 3 9 0 28 -6 42 l-11 24 -39 -44 c-42 -48 -68 -57 -68 -26
0 17 -4 18 -32 10 -41 -11 -47 -5 -11 15 36 20 16 20 -30 1 -47 -19 -50 -19
-37 5 14 26 6 25 -47 -5 l-43 -26 0 23 c0 36 -11 68 -24 68 -11 0 -74 -70
-114 -126 -33 -48 -89 -184 -102 -250 -13 -70 -29 -114 -41 -114 -5 0 -15 -13
-24 -30 -9 -16 -21 -30 -27 -30 -6 0 -19 -7 -29 -16 -16 -14 -22 -11 -84 31
-95 65 -144 87 -276 129 -67 20 -123 44 -134 56 -21 24 -40 26 -31 5 4 -12 0
-14 -17 -10 -12 3 -58 12 -102 21 -44 9 -95 22 -114 30 -41 17 -41 17 -41 0 0
-13 -4 -13 -27 0 -16 7 -53 14 -83 14 -51 -1 -56 -3 -77 -35 -23 -36 -21 -45
11 -45 12 0 28 -5 36 -10 11 -7 0 -10 -37 -10 l-52 0 5 208 c6 236 -3 291 -44
250z m-986 -159 c3 -6 -5 -3 -20 6 -14 10 -26 19 -26 22 0 7 39 -17 46 -28z
m-192 -45 c3 -8 2 -12 -4 -9 -6 3 -10 10 -10 16 0 14 7 11 14 -7z m-54 -44
c-6 -11 -13 -20 -16 -20 -2 0 0 9 6 20 6 11 13 20 16 20 2 0 0 -9 -6 -20z
m-200 -459 c0 -3 -10 8 -21 24 -20 29 -21 29 -15 5 5 -24 4 -24 -9 -6 -16 21
-19 48 -8 59 6 6 53 -66 53 -82z m3435 20 c-8 -17 -21 -33 -27 -37 -8 -5 -7 1
3 16 8 14 19 31 23 38 15 25 16 11 1 -17z m85 -21 c-11 -21 -30 -27 -30 -9 0
5 4 8 9 5 5 -3 11 1 15 9 3 8 8 15 11 15 3 0 1 -9 -5 -20z m-32 -70 c-7 -10
-14 -17 -17 -15 -4 4 18 35 25 35 2 0 -1 -9 -8 -20z m-3609 -24 c-3 -3 -11 5
-18 17 -13 21 -12 21 5 5 10 -10 16 -20 13 -22z m826 -106 c-11 -5 -29 -8 -40
-8 -16 0 -15 2 5 8 34 11 60 11 35 0z m-80 -20 c-27 -12 -43 -12 -25 0 8 5 22
9 30 9 10 0 8 -3 -5 -9z m-225 -353 c0 -2 -10 -12 -22 -23 l-23 -19 19 23 c18
21 26 27 26 19z"/>
<path d="M6140 5149 c-130 -17 -217 -41 -320 -91 -95 -46 -114 -60 -201 -148
-132 -136 -178 -229 -213 -438 -32 -187 -37 -311 -42 -1012 -2 -393 -9 -935
-14 -1205 -11 -512 -7 -593 29 -725 86 -307 256 -511 500 -600 131 -48 221
-62 386 -62 215 0 367 37 518 127 l61 37 36 -22 c149 -89 339 -165 437 -175
66 -7 102 7 119 45 7 14 14 111 18 222 l6 196 -34 36 c-23 25 -42 36 -63 36
-43 0 -117 52 -147 102 -59 101 -59 96 -61 568 -2 239 -4 539 -5 665 -1 127 3
397 9 600 6 204 11 522 11 707 0 389 -11 481 -79 638 -165 382 -498 557 -951
499z m288 -551 c44 -21 73 -43 93 -71 69 -94 64 -20 63 -987 0 -481 -6 -1113
-13 -1405 -13 -512 -14 -532 -36 -580 -29 -66 -80 -124 -130 -146 -31 -15 -66
-19 -160 -19 -106 0 -126 3 -165 23 -54 27 -103 89 -127 160 -15 46 -18 114
-23 582 -6 669 7 2143 20 2210 6 28 17 63 25 79 8 15 15 37 15 48 0 56 118
120 252 136 89 11 106 8 186 -30z m482 -2014 c0 -8 -4 -12 -10 -9 -5 3 -10 10
-10 16 0 5 5 9 10 9 6 0 10 -7 10 -16z m120 -103 c0 -10 -7 -24 -15 -31 -13
-10 -15 -9 -15 12 0 14 3 28 7 31 12 13 23 7 23 -12z"/>
<path d="M11406 5100 c-139 -29 -242 -84 -343 -183 -140 -136 -213 -264 -213
-373 0 -27 -5 -44 -14 -47 -40 -16 -49 -293 -16 -457 54 -263 216 -602 445
-930 288 -412 473 -707 594 -950 106 -213 123 -269 129 -407 6 -150 -17 -231
-81 -290 -56 -52 -103 -67 -202 -67 -162 0 -257 62 -307 200 -16 47 -22 94
-27 230 -10 260 -8 258 -309 249 -170 -5 -212 -9 -237 -24 -53 -30 -64 -105
-45 -302 46 -475 249 -753 625 -855 89 -24 119 -27 265 -28 204 -1 360 27 376
67 2 7 17 12 32 13 47 2 138 49 193 101 47 43 109 146 109 180 0 6 17 20 38
30 49 24 73 84 103 258 32 184 32 361 1 475 -52 190 -163 430 -320 690 -44 74
-196 304 -336 510 -392 578 -467 710 -522 928 -28 112 -29 126 -8 211 34 138
110 238 199 260 24 6 81 11 127 11 94 0 156 -23 220 -79 69 -60 82 -104 88
-294 l5 -169 28 -24 c28 -24 30 -24 241 -24 199 0 215 1 239 20 44 35 49 70
37 255 -13 218 -31 300 -85 402 -92 174 -195 278 -350 353 -130 63 -226 80
-435 79 -111 0 -180 -6 -244 -19z m78 -185 c-4 -8 -17 -15 -30 -15 -15 0 -24
6 -24 15 0 10 10 15 30 15 22 0 28 -4 24 -15z"/>
<path d="M15300 5114 c-53 -10 -88 -26 -94 -41 -10 -26 3 -52 35 -68 41 -21
37 -38 -7 -33 -30 4 -38 0 -47 -19 -7 -16 -7 -30 1 -48 7 -15 8 -27 2 -30 -8
-5 -9 -710 -2 -1310 0 -5 -2 -74 -5 -152 -4 -137 -3 -143 16 -143 25 0 51 -10
51 -20 0 -4 -13 -13 -28 -18 -28 -9 -29 -14 -35 -87 -11 -123 -8 -252 8 -355
9 -61 11 -98 5 -104 -22 -22 -11 -56 25 -70 32 -14 34 -16 25 -48 -6 -18 -20
-46 -32 -63 -23 -30 -23 -34 -23 -340 0 -206 4 -330 13 -369 9 -47 9 -62 -1
-74 -18 -22 -19 -520 -1 -530 10 -6 11 -18 3 -52 -14 -59 -6 -167 15 -208 16
-32 18 -32 84 -31 37 1 79 -2 94 -6 18 -4 52 2 103 20 42 14 87 25 100 23 13
-2 31 5 42 14 10 9 27 18 38 20 19 3 20 14 26 348 4 190 4 594 1 899 l-5 554
-29 11 c-36 13 -35 22 2 41 l29 15 -1 453 c-1 467 4 567 28 567 19 0 25 -15
25 -63 1 -31 10 -56 35 -94 35 -54 36 -67 2 -36 -10 9 -18 11 -18 5 0 -26 54
-322 90 -492 90 -431 203 -1026 220 -1160 12 -93 40 -180 58 -180 5 0 7 -21 5
-47 -5 -51 21 -221 65 -423 23 -108 30 -126 50 -135 20 -8 22 -15 17 -40 -19
-84 6 -222 48 -267 23 -25 28 -26 153 -27 120 -1 132 0 153 20 45 42 67 137
86 369 4 47 12 93 17 103 5 10 11 44 12 75 1 31 7 66 13 77 19 35 61 243 103
505 22 140 52 305 66 365 14 61 27 124 29 140 2 17 41 228 88 470 47 242 104
545 128 673 24 127 47 232 50 232 4 0 5 -69 2 -152 -4 -121 -2 -162 10 -196 8
-23 13 -51 10 -62 -3 -10 0 -42 6 -71 11 -48 10 -54 -9 -71 -20 -19 -21 -28
-16 -151 3 -73 5 -143 6 -157 0 -14 1 -106 1 -205 0 -110 5 -182 11 -186 7 -4
6 -25 -2 -63 -13 -66 -8 -202 9 -219 16 -16 14 -59 -4 -83 -12 -16 -14 -84
-14 -429 0 -225 5 -455 10 -510 5 -55 9 -107 9 -115 -1 -8 -4 -71 -6 -140 -5
-141 1 -160 56 -198 33 -22 42 -23 140 -18 58 3 142 5 188 5 77 0 84 1 111 28
l28 28 -4 170 c-8 395 -10 427 -27 437 -11 6 -16 23 -16 58 0 45 2 50 22 50
l21 0 -7 341 -7 341 -34 33 -35 32 21 59 c14 40 20 82 20 128 -1 38 3 74 9 81
8 9 10 177 8 537 -1 287 -1 573 0 633 2 61 -2 156 -9 213 -10 86 -10 107 2
129 13 23 12 27 -7 40 l-21 14 19 39 c18 35 20 62 21 237 0 190 -14 425 -31
488 -6 23 -15 31 -35 33 -15 2 -31 11 -37 21 -8 15 -28 20 -107 27 -119 10
-132 9 -158 -16 -21 -20 -21 -20 -45 5 -22 23 -30 25 -123 25 -120 0 -173 -14
-192 -49 -7 -15 -22 -71 -34 -126 -29 -144 -93 -556 -87 -562 3 -3 -4 -28 -15
-57 -25 -61 -55 -203 -68 -312 -8 -70 -7 -82 10 -106 26 -37 24 -50 -5 -42
-22 5 -24 2 -45 -98 -37 -180 -61 -321 -61 -364 0 -23 -6 -57 -14 -76 -18 -41
-57 -241 -87 -442 -21 -140 -21 -150 -5 -162 16 -11 15 -14 -7 -36 -27 -27
-52 -119 -89 -330 -13 -76 -26 -128 -33 -128 -7 0 -23 60 -39 148 -15 81 -38
194 -51 252 -14 58 -36 168 -50 244 -15 77 -42 185 -61 240 -30 87 -35 116
-38 211 -3 129 -23 228 -75 382 -27 77 -35 115 -28 122 13 13 -9 173 -29 214
-9 16 -13 39 -10 51 8 29 -91 572 -116 635 -5 14 -16 76 -23 138 -15 123 -41
192 -88 227 -23 17 -39 19 -114 16 -49 -1 -104 -2 -123 -1 -19 1 -57 1 -85 0
-113 -3 -142 -2 -185 3 -25 4 -56 4 -70 2z m1838 -435 c-2 -6 -8 -10 -13 -10
-5 0 -11 4 -13 10 -2 6 4 11 13 11 9 0 15 -5 13 -11z m122 -59 c0 -5 -7 -10
-15 -10 -8 0 -15 5 -15 10 0 6 7 10 15 10 8 0 15 -4 15 -10z m-1316 -446 c11
-29 6 -44 -14 -44 -23 0 -35 22 -26 45 7 20 32 19 40 -1z"/>
<path d="M7841 5089 c-105 -18 -156 -69 -133 -132 8 -22 9 -43 4 -58 -5 -13
-8 -143 -8 -289 l1 -265 23 3 c19 3 22 -1 22 -27 0 -18 -9 -40 -20 -51 -24
-24 -25 -30 -5 -30 19 0 19 -23 1 -75 -16 -47 -20 -339 -5 -368 7 -12 6 -37
-2 -75 -8 -37 -13 -194 -15 -452 -2 -217 -4 -444 -4 -505 -3 -204 -2 -725 1
-893 1 -46 -2 -86 -5 -89 -3 -4 -6 -33 -6 -65 0 -45 4 -60 18 -69 18 -11 18
-13 0 -47 -22 -44 -22 -74 -3 -175 13 -68 13 -82 1 -106 -19 -35 -17 -364 2
-398 7 -12 30 -27 51 -34 40 -12 204 -9 217 4 4 4 0 21 -9 36 -21 36 -21 41
-1 41 8 0 27 -14 41 -30 14 -17 38 -37 54 -45 55 -29 147 -9 183 39 20 26 21
40 21 359 1 257 -2 336 -12 348 -11 13 -10 22 3 49 14 27 18 78 22 301 3 182
1 278 -7 300 -9 25 -8 41 4 77 13 36 15 90 14 260 0 118 -5 228 -11 243 -7 21
-6 41 7 78 13 41 15 80 11 242 -3 107 -5 214 -4 239 0 25 1 79 1 120 -1 41 -1
98 -1 125 0 28 0 165 0 305 0 606 -7 1035 -19 1055 -30 54 -41 57 -215 60 -90
2 -187 -1 -217 -6z m297 -524 c-13 -28 -19 -30 -36 -13 -22 22 -18 26 40 37 4
0 2 -10 -4 -24z m-174 -181 c8 -22 9 -21 -19 -21 -28 0 -31 7 -13 25 16 16 25
15 32 -4z"/>
<path d="M14215 5074 c-51 -13 -77 -29 -90 -55 -20 -38 -19 -56 5 -71 25 -16
26 -35 1 -43 -25 -7 -28 -74 -20 -340 3 -104 5 -370 3 -590 -3 -327 0 -447 16
-658 17 -220 18 -261 6 -278 -10 -15 -11 -31 -5 -65 5 -25 11 -161 14 -302 5
-220 8 -259 21 -269 12 -9 15 -21 10 -47 -6 -32 -4 -36 14 -36 11 0 20 -7 20
-15 0 -9 -9 -15 -25 -15 -22 0 -25 -4 -25 -33 0 -18 7 -43 16 -56 16 -22 16
-25 0 -51 -23 -40 -20 -50 13 -50 42 0 50 -29 14 -57 -15 -13 -32 -23 -37 -23
-5 0 -5 -29 -1 -67 10 -91 7 -296 -6 -360 -23 -117 -115 -197 -241 -211 -174
-20 -303 46 -367 189 -15 32 -21 66 -21 124 0 80 -13 117 -47 138 -22 14 -14
32 18 44 l32 12 -6 123 c-9 189 -16 408 -18 572 -2 137 -4 151 -26 183 -28 41
-28 42 -5 59 12 10 14 16 5 22 -9 6 -10 25 -3 75 11 75 13 121 14 397 0 196
-1 202 -39 293 -6 14 -2 20 13 24 20 5 21 12 20 146 0 78 -4 147 -10 154 -6 8
-4 20 8 38 14 21 15 38 9 93 -4 37 -11 216 -16 397 -4 182 -9 337 -10 345 -1
8 1 56 5 105 8 89 7 91 -18 117 -36 35 -62 39 -206 27 -188 -15 -258 -26 -285
-43 l-23 -15 -1 -372 c-1 -268 2 -376 11 -386 8 -10 8 -17 0 -25 -19 -19 -16
-281 4 -320 14 -28 14 -34 0 -72 -14 -36 -15 -99 -12 -496 2 -250 7 -601 10
-780 4 -179 5 -352 4 -385 -7 -147 0 -557 11 -629 35 -243 160 -452 335 -560
124 -78 254 -116 449 -132 80 -6 93 -5 138 17 41 19 54 21 70 11 34 -22 113
-13 224 23 165 54 275 122 275 169 0 7 21 21 46 31 76 29 143 142 196 336 22
76 24 103 22 269 -5 564 -16 1113 -23 1172 -6 44 -5 94 3 150 14 97 10 188 -8
188 -7 0 -20 8 -29 18 -21 23 -23 82 -3 82 19 0 29 33 22 68 -3 15 0 57 8 94
7 37 9 73 5 80 -4 8 -4 41 0 74 10 70 -1 166 -23 199 -13 20 -14 33 -5 72 9
41 5 133 -6 133 -2 0 -15 -4 -29 -9 -18 -7 -28 -6 -36 4 -17 20 -4 34 38 41
l37 6 0 351 c0 334 -1 352 -18 355 -18 4 -17 5 3 26 18 21 20 33 18 111 -3 82
-5 89 -29 107 -15 11 -53 26 -85 34 -61 14 -313 27 -349 18z m-1053 -3621 c10
-9 18 -20 18 -25 0 -14 -22 -9 -36 10 -25 33 -13 44 18 15z m1052 -426 c19
-14 19 -48 -1 -54 -7 -3 -9 3 -6 16 4 15 1 21 -11 21 -9 0 -16 7 -16 15 0 18
11 19 34 2z"/>
<path d="M8842 5034 c-42 -29 -44 -53 -41 -384 4 -292 3 -471 -3 -702 -1 -51
-2 -280 -1 -508 1 -228 1 -422 1 -430 0 -8 3 -163 7 -345 4 -181 8 -427 9
-545 1 -215 1 -215 24 -218 27 -4 28 -18 2 -34 -20 -13 -20 -24 -20 -454 0
-432 0 -442 21 -468 35 -45 56 -50 190 -51 103 0 130 -3 153 -18 26 -17 30
-17 78 -1 30 10 68 33 95 60 l46 43 -7 398 c-4 219 -11 549 -16 733 -12 416
-12 408 -11 623 1 149 3 177 16 177 8 0 22 -11 31 -25 9 -14 77 -200 151 -413
181 -525 305 -870 369 -1034 30 -76 70 -193 90 -260 38 -135 77 -229 104 -253
14 -13 57 -16 261 -20 266 -5 305 0 315 41 6 24 -62 209 -181 494 -29 69 -69
181 -90 250 -75 256 -150 412 -215 445 -35 18 -39 35 -9 35 20 0 21 4 16 51
-4 28 -19 74 -35 103 -16 28 -37 83 -47 121 -24 94 -105 312 -171 461 l-53
121 148 414 c82 228 210 581 285 785 75 204 136 377 136 383 0 6 -7 14 -15 17
-23 9 -18 33 10 44 31 12 57 64 111 224 38 113 38 115 19 136 -18 20 -26 21
-269 19 l-251 -2 -34 -36 c-19 -20 -47 -64 -62 -98 -33 -71 -89 -252 -114
-368 -10 -44 -33 -107 -51 -140 -18 -33 -54 -112 -79 -174 -42 -101 -46 -119
-37 -148 9 -30 7 -36 -18 -62 -16 -16 -32 -41 -35 -57 -12 -53 -185 -578 -223
-674 -65 -163 -65 -161 -68 410 -2 278 -6 539 -9 580 -3 41 -5 211 -5 378 0
337 -2 346 -64 376 -50 24 -420 24 -454 0z"/>
<path d="M2525 5031 c-7 -12 12 -24 25 -16 11 7 4 25 -10 25 -5 0 -11 -4 -15
-9z"/>
<path d="M1618 4763 c7 -3 16 -2 19 1 4 3 -2 6 -13 5 -11 0 -14 -3 -6 -6z"/>
<path d="M1283 4242 c-19 -11 -59 -56 -101 -117 -39 -55 -86 -120 -105 -145
-50 -65 -81 -124 -68 -128 6 -2 2 -11 -11 -21 -29 -24 -12 -32 33 -17 l37 13
-8 -26 c-4 -14 -21 -48 -39 -75 -35 -56 -38 -68 -16 -60 18 7 18 4 5 -32 -8
-19 -8 -29 0 -34 8 -5 8 -15 0 -34 -5 -15 -8 -32 -4 -37 3 -5 -5 -24 -17 -42
l-23 -32 29 25 28 25 -7 -30 c-4 -16 -9 -38 -13 -49 -3 -13 -1 -16 7 -11 17
10 4 -99 -16 -137 -19 -37 -18 -41 11 -34 32 8 32 -4 1 -53 -40 -63 -85 -170
-106 -251 -24 -94 -36 -127 -95 -268 -39 -94 -50 -112 -65 -107 -15 5 -17 2
-13 -15 3 -11 9 -20 14 -20 5 0 9 -24 9 -52 0 -64 15 -122 37 -143 32 -33 62
-85 57 -100 -5 -11 -10 -12 -18 -5 -9 7 -19 1 -35 -20 -27 -38 -34 -37 -59 1
-26 41 -38 20 -13 -23 11 -18 25 -53 31 -78 26 -97 111 -232 212 -334 35 -36
95 -101 133 -145 39 -44 75 -80 81 -80 14 -1 24 -24 24 -57 0 -14 6 -37 14
-53 15 -28 108 -96 142 -103 18 -3 19 -15 22 -193 2 -128 -1 -199 -9 -218 -48
-115 71 -216 158 -135 27 25 48 82 37 100 -8 12 -6 489 1 496 2 2 28 -21 59
-52 l56 -55 -1 -188 c-1 -103 -4 -300 -8 -437 -3 -136 -3 -253 0 -258 11 -17
39 -1 39 21 0 10 6 21 14 24 11 5 13 66 8 375 -3 256 -2 371 6 376 6 3 15 -8
21 -27 12 -34 54 -81 81 -89 8 -3 28 4 43 15 l28 19 29 -27 c30 -29 67 -29 56
1 -7 17 2 13 50 -23 29 -22 54 -30 54 -17 0 3 -5 15 -11 27 -7 12 17 -5 52
-38 42 -40 64 -68 64 -83 0 -12 6 -27 14 -32 13 -7 12 -14 -1 -49 -17 -43 -16
-44 35 -8 27 19 28 19 25 1 -2 -11 -14 -28 -28 -39 -36 -29 -264 -265 -347
-360 -39 -44 -87 -96 -107 -114 -20 -19 -36 -39 -36 -44 0 -18 72 42 220 187
123 120 114 109 -45 -52 l-200 -202 47 0 c44 0 52 5 210 132 166 135 368 325
721 682 176 177 196 201 183 214 -13 14 -7 21 56 63 40 26 132 105 206 176 74
70 139 130 144 131 5 2 -50 -54 -121 -124 -72 -70 -128 -130 -126 -132 3 -3 0
-11 -6 -19 -9 -10 -8 -13 5 -13 13 0 291 257 341 315 6 7 38 35 73 64 50 42
68 52 88 47 16 -4 36 2 63 20 33 22 47 25 80 19 23 -4 41 -10 41 -14 0 -4 -29
-36 -65 -70 -35 -34 -72 -72 -82 -84 -27 -34 -213 -202 -322 -291 -53 -43 -99
-83 -103 -90 -4 -6 -8 -7 -8 -3 0 4 -9 3 -20 -3 -11 -6 -18 -15 -15 -20 5 -8
-12 -25 -27 -25 -3 0 -9 -3 -13 -7 -8 -8 13 -4 38 7 10 4 16 14 13 22 -4 9 -1
13 6 11 7 -3 45 24 85 59 40 35 76 63 79 63 6 0 -42 -55 -115 -132 -19 -20
-39 -34 -44 -31 -6 3 -7 1 -4 -5 4 -5 -6 -23 -22 -38 -27 -25 -34 -53 -9 -38
5 4 4 -4 -2 -17 -13 -24 -13 -24 9 -5 11 11 19 22 16 25 -3 3 4 10 15 16 22
12 258 233 434 408 98 97 166 151 166 130 0 -5 -82 -87 -183 -183 -100 -96
-237 -230 -304 -296 -67 -67 -144 -139 -170 -160 -46 -36 -103 -92 -103 -101
0 -2 37 27 83 64 139 115 204 155 112 68 -95 -89 -355 -321 -489 -435 -177
-151 -403 -358 -410 -375 -13 -36 331 204 492 342 54 46 124 99 157 120 33 20
80 57 105 82 75 76 158 142 153 123 -7 -27 31 -56 62 -48 22 6 26 11 23 39 -2
21 -10 35 -24 41 -18 8 -14 15 56 85 72 73 247 232 435 396 54 47 20 10 -85
-92 -169 -165 -212 -223 -112 -153 26 18 70 52 97 74 46 38 124 86 139 86 3 0
6 -30 6 -68 0 -56 -3 -69 -20 -80 -22 -14 -26 -42 -8 -60 19 -19 63 -14 84 9
19 21 19 16 24 -357 4 -283 8 -378 17 -381 7 -3 14 6 17 19 3 17 15 701 16
985 0 12 105 135 119 141 4 1 6 -80 3 -181 -5 -202 3 -238 54 -258 23 -8 25
-13 19 -49 -6 -36 -5 -40 14 -40 25 0 41 28 41 69 0 17 4 31 10 31 13 0 232
226 248 256 31 58 0 40 -84 -50 -50 -53 -94 -96 -97 -96 -4 0 -7 9 -7 20 0 11
58 77 145 165 80 81 148 157 151 171 4 13 2 43 -4 66 l-11 42 101 104 c76 79
108 121 130 170 28 61 29 68 18 114 -7 27 -27 71 -44 97 -25 37 -31 53 -24 70
5 14 3 31 -3 44 -11 19 -6 26 40 68 28 26 55 58 61 71 5 13 16 31 22 41 11 14
9 24 -8 55 -11 20 -29 53 -39 72 -10 19 -22 42 -27 50 -26 46 -70 148 -103
240 -20 58 -53 149 -72 202 -30 82 -33 101 -22 114 10 13 10 23 -3 62 -26 75
-30 112 -13 105 21 -7 19 0 -13 65 -59 118 -78 132 -68 50 3 -29 9 -82 12
-118 l6 -65 -42 40 -42 40 5 -30 c3 -16 9 -58 12 -93 l7 -63 -58 27 c-33 15
-75 29 -94 32 -32 4 -33 4 -17 -12 50 -51 102 -190 95 -259 -3 -31 -4 -30 -35
33 -50 102 -66 117 -43 42 13 -40 20 -93 20 -142 0 -135 -21 -187 -36 -87 l-8
52 -12 -85 c-8 -47 -19 -105 -26 -128 l-13 -44 0 76 c0 47 -5 80 -13 87 -10
11 -12 3 -12 -39 0 -47 -22 -137 -39 -154 -3 -4 -7 19 -9 50 -2 37 -12 75 -28
106 -13 27 -23 51 -20 53 5 5 42 -47 56 -78 9 -21 10 -19 5 11 -3 19 -19 54
-36 78 -18 24 -29 52 -27 65 3 20 5 18 27 -16 13 -21 25 -37 26 -35 2 2 -1 38
-7 81 -11 74 -13 80 -55 117 -61 53 -229 110 -334 111 -41 1 -65 3 -54 6 11 2
46 16 78 30 57 27 60 43 8 43 -30 0 -20 11 22 26 18 6 32 17 32 25 1 25 16 39
43 40 15 0 21 3 14 6 -10 4 -10 8 -1 19 9 12 5 14 -26 14 l-38 0 46 31 c59 39
63 45 30 54 l-26 6 32 20 32 20 -22 18 c-19 15 -21 21 -11 34 10 12 9 16 -4
21 -13 5 -15 9 -6 18 18 18 14 28 -10 28 -20 0 -21 1 -3 20 17 19 17 20 1 20
-9 0 -14 5 -11 10 3 6 1 10 -5 10 -7 0 -8 6 0 19 14 28 13 31 -15 31 -18 0
-26 7 -31 24 -3 14 -3 30 1 35 4 7 -5 11 -24 11 -24 0 -31 4 -31 20 0 17 -7
20 -46 20 -25 0 -55 5 -67 11 -42 23 -49 55 -15 68 22 8 22 9 -9 25 -18 9 -39
16 -48 16 -22 0 -19 18 5 25 26 8 16 25 -14 25 -26 0 -51 24 -41 39 3 6 -10
17 -30 25 -20 9 -34 20 -31 25 7 10 -16 21 -46 21 -18 0 -19 2 -7 17 13 15 12
15 -8 5 -12 -7 -30 -12 -40 -12 -11 0 -52 -32 -92 -70 -41 -39 -77 -68 -80
-65 -3 3 -4 41 -3 83 l2 77 -40 -81 c-43 -85 -48 -113 -37 -179 4 -22 3 -47
-2 -55 -9 -12 -14 -11 -34 8 -34 32 -39 27 -15 -14 17 -29 19 -40 10 -55 -7
-10 -12 -25 -12 -33 0 -16 -27 -29 -41 -20 -5 3 -9 1 -9 -4 0 -6 10 -12 23
-16 74 -18 212 -135 263 -221 14 -24 41 -83 60 -132 20 -48 45 -98 57 -111 43
-47 131 -86 302 -136 62 -18 145 -63 152 -83 8 -21 -15 -33 -67 -34 l-45 -1
48 -17 c44 -15 157 -102 157 -120 0 -4 -28 -5 -62 -4 -35 2 -83 0 -108 -5
l-45 -8 53 -12 c52 -12 135 -53 148 -74 3 -5 -16 2 -44 16 -72 37 -137 51
-168 38 -30 -14 -31 -28 -1 -35 12 -4 31 -13 42 -21 19 -14 18 -15 -13 -6 -41
11 -78 -6 -60 -27 6 -7 7 -13 2 -13 -5 0 17 -11 49 -24 69 -29 127 -71 127
-93 0 -11 -6 -8 -21 11 -39 49 -178 106 -199 82 -11 -14 -2 -24 67 -70 23 -15
44 -34 47 -42 3 -7 -17 2 -44 21 -58 41 -113 65 -149 65 -16 0 -37 11 -54 29
l-28 30 38 -5 c34 -4 35 -3 13 6 -18 8 -21 13 -11 19 11 7 11 9 0 14 -10 4 -8
6 4 6 14 1 17 6 11 24 -4 12 -11 25 -16 28 -5 3 -3 13 6 22 13 13 13 16 2 20
-17 7 -10 44 13 71 15 18 15 18 -6 7 -32 -16 -35 -14 -17 14 10 16 12 25 5 25
-7 0 -9 9 -6 23 6 21 -18 68 -28 57 -3 -3 -9 -52 -15 -110 -11 -112 -31 -167
-76 -209 -14 -13 -23 -27 -21 -31 2 -4 -1 -7 -8 -7 -7 0 -38 -17 -71 -36 -77
-48 -146 -61 -271 -54 -165 10 -270 54 -194 81 19 6 43 3 88 -11 l62 -20 -16
21 c-36 51 -38 57 -10 46 33 -12 38 -12 30 0 -3 5 3 19 13 31 19 20 34 64 25
73 -3 2 -26 -2 -51 -10 -64 -19 -82 -18 -82 6 0 19 11 24 102 44 40 9 110 67
135 111 15 27 23 57 23 90 0 72 -13 86 -34 35 l-17 -42 -39 36 c-35 31 -47 36
-90 36 -33 0 -66 -8 -93 -22 -59 -32 -165 -32 -225 0 -61 32 -119 29 -170 -8
-44 -31 -45 -31 -56 13 -11 45 -26 20 -26 -42 0 -50 5 -66 33 -107 41 -62 101
-104 158 -111 51 -7 70 -19 62 -40 -5 -12 -17 -13 -64 -8 -65 8 -72 1 -34 -35
21 -20 23 -29 18 -66 -5 -36 -3 -44 10 -44 9 0 23 7 32 16 14 15 22 15 68 3
28 -8 51 -18 52 -24 0 -20 -104 -44 -221 -51 -140 -8 -190 3 -294 63 -130 76
-187 232 -136 371 14 39 14 42 -1 42 -9 0 -27 -10 -39 -21 -21 -19 -21 -24 -9
-43 14 -22 18 -99 5 -91 -4 2 -6 -21 -5 -51 2 -34 8 -60 16 -65 11 -6 10 -9
-4 -15 -21 -8 -23 -24 -2 -24 9 0 12 -6 9 -15 -4 -8 -13 -15 -20 -15 -8 0 -43
-9 -77 -20 -34 -11 -74 -22 -87 -25 -14 -3 -43 -18 -65 -35 -22 -17 -53 -38
-70 -46 -30 -17 -30 -17 -12 4 10 11 36 33 58 48 49 34 50 49 2 29 -36 -15
-36 -15 -19 4 10 10 31 25 47 31 16 7 29 19 29 26 0 12 -6 12 -37 -2 -70 -29
-86 -35 -91 -30 -2 3 30 21 72 40 58 27 76 40 76 55 0 28 -40 37 -76 18 -16
-8 -58 -24 -93 -36 -35 -11 -85 -34 -112 -51 -77 -47 -57 -17 23 34 39 25 87
48 107 52 20 3 41 7 46 9 11 4 -131 9 -154 5 -25 -3 31 62 82 97 26 17 68 39
94 48 95 34 94 30 28 60 -59 26 -95 51 -95 65 0 4 39 10 86 14 99 8 192 35
284 81 84 43 103 64 145 165 19 46 49 109 67 139 41 69 140 171 166 171 16 0
23 11 32 48 6 27 10 53 9 58 -4 21 2 26 16 14 8 -7 12 -17 8 -23 -3 -6 -1 -7
6 -3 6 4 9 11 6 16 -3 4 0 10 7 12 6 2 -5 12 -26 22 -20 10 -41 27 -45 38 -5
14 -10 18 -15 10 -4 -7 -12 -12 -18 -12 -7 0 -8 21 -3 65 6 60 4 70 -29 143
-20 44 -39 94 -42 111 -7 33 -24 53 -24 27 0 -8 7 -50 15 -93 17 -86 19 -133
7 -133 -4 0 -15 12 -25 28 -43 69 -92 114 -135 122 -27 5 -39 4 -35 -3 4 -6
-9 -8 -36 -4 -36 4 -40 3 -30 -10 15 -18 4 -27 -55 -45 -34 -11 -36 -13 -21
-25 17 -11 16 -13 -9 -23 -15 -5 -34 -10 -42 -10 -19 0 -18 -17 4 -30 9 -6 13
-13 7 -16 -92 -43 -91 -42 -67 -49 26 -9 29 -22 5 -28 -17 -4 -17 -5 0 -6 9 0
17 -4 17 -9 0 -8 -108 -52 -128 -52 -7 0 -12 -7 -12 -15 0 -8 -7 -15 -16 -15
-11 0 -15 -6 -11 -20 3 -13 -1 -21 -14 -25 -10 -4 -19 -13 -19 -20 0 -8 -10
-21 -22 -29 -18 -13 -19 -17 -8 -32 12 -14 12 -17 -3 -25 -9 -6 -14 -16 -10
-25 3 -9 0 -20 -8 -25 -12 -7 -12 -12 -1 -30 12 -18 12 -23 0 -30 -7 -5 -20
-9 -28 -9 -12 -1 -11 -3 3 -11 9 -6 15 -14 12 -20 -4 -5 5 -13 19 -19 37 -14
32 -20 -11 -14 l-38 6 25 -21 c17 -14 20 -21 10 -21 -23 -1 52 -39 77 -40 12
0 25 -5 29 -11 5 -8 -9 -9 -47 -5 l-54 7 35 -31 c26 -23 32 -33 22 -39 -10 -6
-4 -13 21 -25 19 -9 40 -16 46 -16 21 0 11 -20 -14 -26 -38 -9 -30 -22 28 -49
28 -14 50 -25 47 -25 -195 -15 -274 -39 -350 -107 -28 -25 -49 -47 -47 -50 2
-2 17 1 32 7 15 6 30 9 32 6 2 -2 -19 -12 -47 -21 -55 -18 -64 -30 -99 -130
-14 -38 -22 -86 -23 -130 l0 -70 -17 35 c-11 24 -16 63 -16 127 0 50 -3 86 -7
79 -15 -27 -36 -125 -32 -148 4 -22 4 -22 -8 2 -16 31 -15 272 1 314 7 16 10
30 8 33 -6 6 -58 -76 -72 -116 l-14 -36 0 35 c-2 77 40 189 92 248 11 12 18
22 14 22 -17 0 -143 -33 -159 -41 -24 -13 -23 -2 9 98 15 45 23 86 19 90 -4 4
-27 -13 -51 -38 l-44 -46 -6 61 c-6 54 1 111 22 181 4 16 0 15 -26 -9 -17 -17
-31 -27 -31 -24 0 6 40 103 74 181 18 42 11 46 -28 16 -14 -11 -26 -18 -26
-16 0 3 18 31 40 63 60 87 105 156 120 183 12 23 8 22 -55 -13 l-67 -37 23 33
c13 18 61 75 107 126 46 50 79 92 73 92 -5 0 -13 -4 -16 -10 -9 -15 -45 -12
-45 3 0 7 16 32 36 56 20 23 35 44 33 46 -2 2 -18 -4 -36 -13z m1000 -363 c9
-12 17 -26 17 -32 0 -6 -7 -2 -15 10 -20 28 -78 45 -112 32 -36 -13 -42 -11
-13 6 33 20 99 11 123 -16z m1080 20 c20 -5 37 -14 37 -19 0 -6 -10 -6 -26 0
-50 19 -90 12 -118 -21 -29 -34 -35 -27 -10 9 15 22 46 40 69 41 6 1 27 -4 48
-10z m-1148 -72 c12 -10 15 -18 9 -28 -5 -8 -9 -18 -9 -24 0 -5 -12 -11 -28
-13 -33 -4 -45 18 -29 54 13 27 30 30 57 11z m1125 -6 c0 -24 16 -36 23 -19 4
10 6 10 6 1 2 -23 -36 -52 -58 -46 -12 3 -24 9 -26 13 -8 12 16 60 26 54 5 -3
9 0 9 5 0 6 5 11 10 11 6 0 10 -9 10 -19z m-1172 -134 l47 -17 -43 4 c-42 4
-92 36 -92 59 0 6 9 2 21 -9 11 -10 42 -27 67 -37z m-38 -44 c24 -13 36 -23
27 -23 -47 0 -107 54 -107 95 0 14 5 10 18 -15 11 -23 33 -43 62 -57z m1285
67 c-10 -11 -22 -20 -28 -20 -5 0 1 9 14 20 31 25 37 25 14 0z m36 -34 c-21
-33 -56 -55 -68 -42 -4 3 1 6 10 6 10 0 30 18 45 39 33 47 43 45 13 -3z m-93
7 c-10 -2 -28 -2 -40 0 -13 2 -5 4 17 4 22 1 32 -1 23 -4z m-2309 -618 c-9
-60 -9 -104 0 -194 12 -111 25 -154 86 -296 11 -25 12 -35 4 -27 -19 18 -26
15 -34 -15 l-7 -28 -34 39 c-21 25 -34 50 -34 68 0 16 -5 27 -12 26 -34 -8
-76 220 -58 314 15 77 81 210 97 195 2 -2 -2 -39 -8 -82z m1850 -34 c23 -6 19
-10 -40 -45 -73 -44 -110 -44 -159 -2 -17 13 -40 28 -51 31 -17 6 -19 9 -8 16
16 10 222 10 258 0z m-260 -40 c27 -20 104 -121 97 -129 -7 -7 -36 11 -36 23
0 26 -44 66 -106 95 -35 17 -64 34 -64 37 0 13 81 -7 109 -26z m365 21 c3 -5
-17 -16 -44 -26 -65 -24 -110 -69 -110 -113 0 -33 -16 -45 -26 -19 -8 21 41
110 72 131 44 28 98 42 108 27z m-1497 -71 c-50 -53 -93 -130 -105 -188 l-8
-38 -8 48 c-7 43 -4 54 19 90 27 42 122 136 139 137 5 0 -12 -22 -37 -49z
m-10 -58 c-6 -41 -37 -60 -37 -23 0 10 8 24 18 29 23 14 22 14 19 -6z m2392
-64 c28 -6 53 -14 56 -19 5 -8 -115 16 -124 25 -7 8 14 6 68 -6z m-2934 -164
c46 -154 150 -276 268 -314 l38 -13 -92 -99 -91 -99 -49 41 c-27 23 -61 59
-77 81 -15 23 -41 55 -58 72 -16 17 -41 54 -53 82 l-23 51 32 109 c17 60 32
120 34 134 1 14 11 39 22 55 l19 29 3 -24 c2 -14 14 -61 27 -105z m1112 51
c-20 -18 -37 -36 -37 -39 0 -3 19 -3 43 -1 38 3 34 1 -35 -25 -86 -31 -139
-63 -206 -125 -25 -22 -40 -32 -34 -21 14 27 57 66 110 100 54 35 48 43 -15
16 l-48 -21 35 31 c28 24 202 119 219 119 3 0 -12 -15 -32 -34z m86 -33 c-7
-2 -19 -2 -25 0 -7 3 -2 5 12 5 14 0 19 -2 13 -5z m-74 -37 c-2 -2 -15 -9 -29
-15 -24 -11 -24 -11 -6 3 16 13 49 24 35 12z m1456 -6 c3 -5 17 -10 31 -10 13
0 24 -4 24 -10 0 -5 31 -25 69 -45 38 -19 72 -39 76 -45 4 -6 -22 5 -58 25
-73 40 -107 45 -107 16 0 -18 -3 -19 -30 -10 -17 6 -27 16 -23 22 4 6 0 8 -9
5 -8 -4 -21 -2 -29 3 -12 8 -12 10 1 8 32 -3 70 1 70 9 0 4 -12 15 -27 24 -20
12 -23 18 -11 18 9 0 20 -4 23 -10z m-1435 -19 c0 -17 -26 -29 -84 -40 -80
-15 -80 -14 -11 19 61 30 95 37 95 21z m1240 -57 c0 -2 -9 0 -20 6 -11 6 -20
13 -20 16 0 2 9 0 20 -6 11 -6 20 -13 20 -16z m1069 2 c7 -8 16 -27 20 -43 8
-26 3 -37 -30 -81 -27 -35 -52 -55 -84 -67 -25 -10 -45 -22 -45 -26 0 -5 -23
-27 -51 -49 -42 -33 -58 -40 -95 -40 l-44 0 72 67 c173 161 171 159 165 202
-4 35 -2 40 17 44 43 9 64 7 75 -7z m-1133 -38 l29 -32 -35 25 c-19 14 -42 28
-50 32 -11 4 -9 6 6 6 11 1 33 -13 50 -31z m-905 -10 l44 -33 117 4 c111 3
116 2 123 -18 4 -13 1 -28 -5 -36 -14 -17 -16 -16 30 -20 22 -2 42 -12 57 -30
l23 -27 50 31 c28 17 59 31 69 31 11 0 23 9 26 20 3 11 15 20 25 20 11 0 41 9
67 19 34 13 63 17 95 14 28 -3 48 -1 52 6 5 7 1 9 -9 5 -10 -4 -14 -2 -10 8 8
20 65 37 90 27 16 -6 17 -8 3 -8 -16 -1 -17 -11 -6 -60 3 -12 -25 -91 -32 -91
-4 0 -11 -15 -15 -32 -7 -32 -7 -33 -15 -8 l-7 25 -13 -28 c-10 -20 -16 -24
-22 -15 -5 9 -8 7 -8 -7 0 -15 -2 -17 -9 -6 -6 10 -11 4 -16 -20 -7 -29 -9
-31 -16 -14 -7 19 -8 19 -8 1 -1 -19 -2 -19 -14 -2 -12 16 -14 16 -35 -4 -20
-19 -22 -19 -22 -3 0 15 -4 14 -20 -7 l-20 -25 0 25 -1 25 -14 -25 -14 -25
-10 25 c-6 17 -10 19 -10 8 -1 -9 -6 -20 -12 -24 -8 -4 -9 1 -4 16 5 15 4 20
-4 16 -6 -4 -11 -15 -12 -24 0 -14 -2 -13 -9 3 l-9 20 -1 -20 c-1 -11 -4 -14
-7 -7 -7 17 -23 15 -23 -3 0 -8 -4 -15 -10 -15 -5 0 -10 5 -10 10 0 21 -20 9
-21 -12 -1 -17 -2 -19 -6 -5 -2 9 -11 17 -18 17 -7 0 -16 -8 -18 -17 -3 -12
-5 -10 -6 7 -1 20 -3 22 -11 10 -9 -13 -10 -13 -10 0 0 13 -1 13 -10 0 -7 -12
-11 -10 -19 10 l-10 25 -1 -25 -1 -25 -17 28 c-9 15 -20 27 -24 27 -5 0 -8
-12 -8 -27 0 -28 -1 -28 -18 7 l-17 35 -5 -34 -5 -34 -19 39 c-19 38 -19 39
-27 14 -5 -17 -7 -19 -8 -7 -1 10 -5 16 -10 12 -5 -3 -12 4 -16 15 -10 33 -25
23 -26 -17 -2 -36 -2 -36 -8 9 -8 54 -18 69 -31 48 -6 -10 -10 -11 -10 -3 0 7
-6 10 -14 7 -9 -3 -15 6 -20 28 -5 26 -9 30 -16 18 -7 -11 -10 -7 -10 19 0 26
-3 32 -16 27 -13 -5 -15 -2 -11 15 4 15 2 19 -8 15 -9 -3 -12 0 -8 10 3 7 0
14 -6 14 -6 0 -8 7 -6 15 3 8 7 22 10 30 6 22 17 19 66 -17z m-1125 -105 c-2
-3 -14 -2 -27 2 -16 6 -18 9 -8 16 13 7 45 -9 35 -18z m3229 6 c10 -14 1 -21
-19 -13 -9 3 -13 10 -10 15 7 12 21 11 29 -2z m-62 -72 c6 -36 4 -38 -16 -31
-36 10 -39 19 -16 48 12 15 22 26 24 24 1 -2 5 -20 8 -41z m-3325 -251 c114
-112 248 -237 297 -277 50 -40 144 -121 211 -179 66 -58 166 -145 222 -194 56
-48 102 -93 102 -98 0 -14 -13 -4 -165 123 -441 369 -681 586 -820 742 -38 43
-71 80 -74 82 -2 3 1 5 7 5 7 0 106 -92 220 -204z m3228 195 c-3 -5 3 -20 14
-34 11 -13 24 -38 30 -53 l11 -29 -28 28 c-16 15 -33 27 -39 27 -5 -1 -26 -16
-47 -35 l-38 -33 21 -42 c25 -48 20 -66 -6 -23 -9 15 -25 40 -35 55 l-18 26
65 61 c60 57 83 74 70 52z m-2946 -83 c101 -102 125 -142 41 -68 -80 71 -151
121 -161 115 -5 -3 105 -120 243 -261 155 -157 253 -265 255 -279 2 -17 -3
-24 -23 -29 -22 -6 -24 -9 -14 -27 9 -17 8 -20 -3 -13 -7 5 -17 9 -23 9 -26 2
-64 18 -60 25 3 4 -2 7 -9 6 -14 -1 -105 77 -357 306 -64 58 -129 114 -144
124 l-27 17 29 26 c118 107 146 131 158 131 7 0 50 -37 95 -82z m2741 -9 c18
-9 17 -14 -30 -65 -72 -82 -85 -88 -168 -89 l-72 0 52 54 c101 104 160 131
218 100z m399 -14 c0 -9 -12 -27 -26 -40 -20 -19 -25 -30 -20 -50 13 -51 48
-43 80 20 12 23 16 25 16 10 0 -27 -89 -115 -116 -115 -12 0 -27 7 -34 15 -9
11 -7 21 14 48 14 19 26 40 26 47 0 16 42 80 53 80 4 0 7 -7 7 -15z m-3489
-113 c65 -44 319 -278 319 -294 0 -14 -53 25 -160 118 -155 134 -247 236 -159
176z m3519 -61 c0 -12 -11 -23 -31 -30 -44 -15 -71 -13 -34 3 17 7 36 20 44
29 17 22 21 21 21 -2z m-620 -39 c26 -11 30 -16 18 -19 -10 -3 -18 -8 -18 -13
0 -5 -22 -22 -50 -39 l-50 -31 -35 21 c-24 14 -47 20 -71 17 l-35 -4 47 40
c26 23 54 44 63 48 21 9 88 -1 131 -20z m487 -15 c-30 -7 -42 -6 -53 4 -11 12
-5 13 39 10 l52 -4 -38 -10z m-3 -39 c18 -25 21 -53 6 -43 -16 10 -42 65 -31
65 6 0 17 -10 25 -22z m-392 -30 c41 -55 43 -65 5 -23 -34 38 -36 39 -50 21
-8 -11 -19 -16 -26 -12 -8 5 -4 13 11 26 30 25 32 25 60 -12z m-796 -130
c-200 -198 -357 -338 -380 -338 -14 0 42 56 178 178 66 59 156 140 200 180 44
39 84 72 88 72 4 0 -34 -42 -86 -92z m668 50 c-3 -5 -12 -1 -20 9 -20 26 -17
35 5 16 11 -9 18 -21 15 -25z m-2577 -150 c54 -53 63 -67 63 -98 l-1 -35 -22
27 c-22 27 -98 133 -111 156 -17 28 12 8 71 -50z m2523 7 c0 -8 -7 -15 -15
-15 -16 0 -20 12 -8 23 11 12 23 8 23 -8z m636 -70 c-10 -16 -36 -30 -70 -40
-60 -18 -70 -26 -80 -70 -7 -29 -52 -85 -68 -85 -12 0 -10 188 2 195 6 3 13 0
16 -9 3 -8 19 -19 36 -25 26 -9 36 -7 74 15 25 15 57 42 72 62 l27 36 3 -28
c2 -15 -4 -38 -12 -51z m-1936 -16 c0 -6 -4 -7 -10 -4 -5 3 -10 11 -10 16 0 6
5 7 10 4 6 -3 10 -11 10 -16z m-1182 -59 c32 -39 41 -80 23 -109 -7 -11 -18
-6 -54 20 -40 29 -46 39 -47 70 0 35 14 59 35 59 5 0 25 -18 43 -40z m141 9
l31 -11 0 -262 c0 -145 -2 -265 -4 -267 -12 -11 -85 4 -91 19 -3 9 -3 132 1
274 5 190 10 258 19 258 7 0 26 -5 44 -11z m1137 -82 c11 -20 11 -27 2 -25
-12 3 -78 101 -78 116 1 10 58 -59 76 -91z m267 -62 c-136 -129 -269 -243
-223 -190 14 16 41 42 60 59 19 17 89 82 155 143 66 62 125 113 130 113 6 0
-49 -56 -122 -125z m-1193 80 c13 -14 21 -25 18 -25 -2 0 -15 11 -28 25 -13
14 -21 25 -18 25 2 0 15 -11 28 -25z m501 -92 c13 -16 12 -17 -3 -4 -10 7 -18
15 -18 17 0 8 8 3 21 -13z m-240 -70 l24 -27 -32 23 c-33 23 -40 31 -25 31 5
0 19 -12 33 -27z m-30 -138 c55 -61 44 -59 -23 4 -21 19 -38 42 -38 50 0 8 1
12 3 10 2 -2 28 -31 58 -64z m849 61 c0 -2 -8 -10 -17 -17 -16 -13 -17 -12 -4
4 13 16 21 21 21 13z m-380 -124 c36 -33 63 -62 60 -65 -6 -6 -140 108 -153
130 -16 27 24 -1 93 -65z m-515 48 c10 -11 16 -20 13 -20 -3 0 -13 9 -23 20
-10 11 -16 20 -13 20 3 0 13 -9 23 -20z"/>
<path d="M994 2854 c-4 -27 -2 -50 4 -56 7 -7 11 7 13 42 5 65 -7 76 -17 14z"/>
<path d="M866 2574 c-9 -23 -8 -24 14 -24 11 0 20 2 20 4 0 12 -13 36 -20 36
-4 0 -11 -7 -14 -16z"/>
<path d="M917 2524 c-11 -11 5 -34 24 -34 12 0 19 7 19 20 0 19 -28 28 -43 14z"/>
<path d="M1017 2424 c-15 -15 -7 -45 11 -42 9 2 17 12 17 22 0 20 -16 31 -28
20z"/>
<path d="M1000 2336 c0 -25 22 -74 35 -80 15 -5 10 18 -8 42 -8 10 -7 16 2 22
8 4 10 13 7 19 -10 16 -36 14 -36 -3z"/>
<path d="M1091 2321 c-38 -10 -47 -33 -28 -71 9 -18 14 -36 11 -41 -3 -5 1 -9
9 -9 20 0 79 68 75 87 -5 23 -40 41 -67 34z m39 -72 c0 -4 -4 -10 -9 -13 -14
-9 -34 22 -26 41 6 17 7 17 21 -1 8 -11 14 -23 14 -27z"/>
<path d="M1187 2183 c-16 -15 -6 -34 15 -31 29 4 38 38 10 38 -10 0 -22 -3
-25 -7z"/>
<path d="M1024 3784 c-18 -14 -18 -15 4 -4 12 6 22 13 22 15 0 8 -5 6 -26 -11z"/>
<path d="M1223 3612 c-22 -20 -49 -50 -59 -67 -13 -23 -5 -18 32 20 84 85 99
112 27 47z"/>
<path d="M3029 3506 l22 -23 -25 4 c-34 7 -32 -4 11 -52 25 -29 34 -34 29 -18
-4 12 -1 31 6 43 12 19 10 24 -17 46 -38 31 -55 31 -26 0z"/>
<path d="M2528 3494 c-27 -14 -31 -24 -41 -86 -5 -36 12 -36 44 -1 18 20 20
25 7 20 -24 -8 -23 4 3 37 27 34 21 48 -13 30z"/>
<path d="M2760 3484 c0 -8 5 -12 10 -9 6 4 8 11 5 16 -9 14 -15 11 -15 -7z"/>
<path d="M2480 2746 c6 -8 18 -12 26 -9 19 7 7 23 -18 23 -17 0 -18 -3 -8 -14z"/>
<path d="M3628 1232 c-60 -47 -88 -83 -95 -124 -6 -42 27 -88 63 -88 30 0 74
41 74 70 0 26 -46 70 -74 70 -16 0 -10 10 34 55 30 30 52 55 50 54 -3 0 -26
-17 -52 -37z"/>
<path d="M3042 1094 c-24 -14 -62 -44 -85 -66 -23 -22 -57 -52 -74 -65 -18
-14 -33 -31 -33 -38 0 -20 -65 -91 -223 -245 -150 -145 -297 -304 -297 -322 0
-15 189 143 265 222 39 39 106 104 150 143 147 129 200 180 175 167 -14 -7
-42 -28 -62 -48 -22 -21 -38 -30 -38 -22 0 14 89 103 213 215 60 54 82 85 60
85 -5 0 -27 -12 -51 -26z"/>
<path d="M2799 943 c-1 -4 -1 -11 0 -15 0 -5 -3 -7 -7 -5 -14 4 -126 -84 -147
-116 -11 -17 -44 -47 -73 -68 -62 -42 -111 -88 -155 -144 l-32 -40 49 35 c60
42 239 211 231 218 -3 3 9 14 26 24 17 11 27 23 23 30 -4 7 -3 8 4 4 6 -4 34
8 60 26 41 28 47 35 36 46 -8 7 -15 9 -15 5z"/>
<path d="M2543 355 c-57 -57 -103 -107 -103 -110 0 -3 8 -5 18 -5 16 0 222
197 222 213 0 27 -47 -7 -137 -98z"/>
</g>
</svg>
